<?xml version="1.0" standalone="no"?>
<!DOCTYPE svg PUBLIC "-//W3C//DTD SVG 20010904//EN"
 "http://www.w3.org/TR/2001/REC-SVG-20010904/DTD/svg10.dtd">
<svg version="1.0" xmlns="http://www.w3.org/2000/svg"
 width="693.000000pt" height="693.000000pt" viewBox="0 0 693.000000 693.000000"
 preserveAspectRatio="xMidYMid meet">
<metadata>
Created by potrace 1.16, written by Peter Selinger 2001-2019
</metadata>
<g transform="translate(0.000000,693.000000) scale(0.100000,-0.100000)"
fill="#000000" stroke="none">
<path d="M1620 6889 c-437 -25 -905 -276 -1201 -644 -220 -274 -345 -581 -381
-940 -16 -163 -15 -3458 2 -3688 11 -163 44 -302 110 -467 211 -534 632 -907
1210 -1071 86 -24 136 -32 273 -39 194 -11 1639 -15 1679 -5 20 5 27 15 32 43
11 60 19 4546 11 5709 -6 854 -10 1076 -20 1090 -13 17 -59 18 -797 19 -431 1
-844 -2 -918 -7z m1160 -3428 l0 -2879 -92 4 c-51 2 -298 6 -548 8 -254 3
-490 10 -535 16 -281 40 -585 222 -763 459 -105 139 -198 348 -224 501 -14 85
-23 3131 -10 3530 l9 285 36 107 c59 174 121 285 238 425 157 187 418 344 646
389 101 20 372 30 856 32 l387 2 0 -2879z"/>
<path d="M1640 5484 c-125 -24 -266 -99 -356 -190 -141 -140 -204 -341 -175
-563 8 -63 21 -105 50 -165 75 -152 174 -250 331 -324 64 -31 90 -38 188 -46
221 -19 387 41 537 193 75 77 118 147 152 246 24 70 27 95 27 200 0 107 -3
129 -31 206 -70 200 -216 347 -415 416 -56 20 -97 26 -178 29 -58 1 -116 0
-130 -2z"/>
<path d="M4064 6894 l-22 -5 -7 -632 c-9 -785 -1 -6162 10 -6198 l7 -27 181
-7 c100 -4 400 -2 667 3 542 12 574 16 798 91 532 177 944 595 1125 1141 47
141 57 213 67 495 12 306 12 3143 0 3455 -8 214 -11 245 -39 352 -176 675
-681 1158 -1366 1309 -97 21 -122 22 -750 25 -357 1 -660 0 -671 -2z m1492
-3109 c32 -8 97 -34 143 -56 67 -33 102 -59 165 -123 136 -136 194 -264 204
-442 6 -129 -10 -218 -57 -319 -95 -200 -264 -343 -463 -390 -81 -19 -225 -19
-306 0 -200 47 -377 188 -467 371 -51 103 -68 195 -62 329 9 185 63 311 192
441 178 180 414 249 651 189z"/>
</g>
</svg>
