<?xml version="1.0" standalone="no"?>
<!DOCTYPE svg PUBLIC "-//W3C//DTD SVG 20010904//EN"
 "http://www.w3.org/TR/2001/REC-SVG-20010904/DTD/svg10.dtd">
<svg version="1.0" xmlns="http://www.w3.org/2000/svg"
 width="250.000000pt" height="250.000000pt" viewBox="0 0 250.000000 250.000000"
 preserveAspectRatio="xMidYMid meet">
<metadata>
Created by potrace 1.16, written by Peter Selinger 2001-2019
</metadata>
<g transform="translate(0.000000,250.000000) scale(0.100000,-0.100000)"
fill="#000000" stroke="none">
<path d="M1215 2259 c-22 -22 -71 -57 -110 -77 -64 -33 -77 -36 -155 -37 -74
0 -92 4 -139 28 -30 15 -77 46 -104 68 -28 22 -54 38 -59 37 -5 -2 -20 -30
-33 -63 -47 -115 -125 -194 -230 -234 -29 -11 -49 -25 -48 -33 1 -7 16 -52 33
-100 65 -183 63 -355 -5 -568 -47 -145 -65 -230 -65 -315 0 -207 120 -424 296
-535 112 -71 222 -108 488 -165 67 -15 85 -24 128 -62 l50 -44 39 36 c50 44
63 50 224 86 291 67 406 120 527 245 74 77 113 141 145 239 23 70 26 97 27
210 0 129 -1 131 -48 275 -27 80 -51 150 -53 157 -3 6 13 21 34 32 130 66 209
230 183 378 -28 165 -140 275 -306 304 -78 13 -94 26 -120 97 -9 26 -21 51
-25 56 -4 4 -31 -10 -61 -32 -115 -86 -214 -118 -300 -98 -70 17 -144 56 -212
111 -31 25 -57 45 -59 45 -2 0 -21 -18 -42 -41z m114 -115 c79 -56 150 -78
261 -78 93 -1 99 0 175 39 44 22 83 41 87 43 4 2 11 -6 17 -16 9 -18 4 -23
-46 -48 -91 -44 -161 -128 -196 -236 -4 -9 -267 -213 -585 -452 -319 -239
-582 -438 -585 -443 -10 -16 15 -108 49 -181 38 -79 140 -191 206 -226 l36
-20 581 437 581 437 68 0 69 0 49 -147 c49 -147 49 -149 49 -278 0 -101 -4
-142 -19 -185 -57 -167 -218 -315 -408 -375 -43 -13 -139 -38 -215 -55 -76
-16 -161 -42 -190 -56 l-52 -27 -26 21 c-15 12 -74 32 -143 47 -199 46 -298
73 -349 96 -73 34 -164 101 -222 165 -95 104 -131 205 -132 374 0 101 2 112
52 265 l53 160 0 160 c0 143 -3 170 -27 249 -14 49 -24 93 -21 97 2 4 24 17
48 29 53 25 126 101 156 161 12 24 24 45 25 47 1 1 41 -16 89 -39 159 -77 307
-62 456 45 19 14 41 25 47 26 7 0 35 -16 62 -36z m788 -115 c106 -51 162 -144
163 -267 0 -155 -79 -252 -208 -252 -96 0 -197 94 -244 228 -24 67 -26 183 -5
232 43 101 159 124 294 59z m-577 -519 c0 -82 3 -150 6 -150 3 0 37 23 75 50
l69 50 0 -53 0 -54 -113 -87 c-63 -47 -117 -86 -120 -86 -4 0 -7 78 -7 173 0
143 -3 177 -16 196 -9 13 -13 26 -8 31 21 20 100 79 107 79 4 1 7 -66 7 -149z
m-350 -270 c0 -82 2 -150 5 -150 5 0 89 59 133 93 9 7 12 -3 12 -45 l0 -54
-114 -87 c-63 -48 -117 -87 -120 -87 -3 0 -6 81 -8 181 -3 160 -5 182 -21 194
-17 12 -13 17 40 58 32 26 61 46 66 47 4 0 7 -67 7 -150z m-253 -91 c16 -30
17 -138 2 -176 -5 -15 -29 -47 -51 -70 -23 -24 -40 -44 -37 -47 2 -2 28 -16
58 -31 l53 -27 -33 -28 c-48 -41 -62 -44 -108 -20 -22 11 -45 20 -51 20 -6 0
-10 -28 -10 -67 0 -67 -1 -68 -39 -95 -22 -16 -42 -28 -44 -28 -3 0 -7 81 -9
180 -3 162 -5 180 -22 193 -17 13 -9 22 120 120 76 59 144 105 149 104 6 -2
16 -14 22 -28z"/>
<path d="M1192 2039 c-139 -65 -282 -77 -407 -34 l-70 24 -86 -86 -87 -85 16
-57 c12 -41 16 -103 16 -231 l1 -175 -47 -140 c-26 -76 -45 -141 -43 -143 2
-2 19 6 37 19 91 63 1109 831 1106 834 -2 2 -41 9 -88 15 -56 7 -112 23 -165
47 -44 19 -89 37 -100 38 -11 2 -48 -9 -83 -26z"/>
<path d="M1855 1235 c-376 -275 -975 -737 -975 -753 0 -4 62 -20 138 -36 75
-15 163 -37 196 -48 53 -17 62 -18 95 -5 20 8 90 27 156 41 176 39 308 83 373
126 159 103 244 274 228 460 -5 61 -67 275 -85 293 -4 4 -61 -31 -126 -78z"/>
</g>
</svg>
